<?xml version="1.0" standalone="no"?>
<!DOCTYPE svg PUBLIC "-//W3C//DTD SVG 20010904//EN"
 "http://www.w3.org/TR/2001/REC-SVG-20010904/DTD/svg10.dtd">
<svg version="1.0" xmlns="http://www.w3.org/2000/svg"
 width="170.000000pt" height="60.000000pt" viewBox="0 0 170.000000 60.000000"
 preserveAspectRatio="xMidYMid meet">
<metadata>
Created by potrace 1.16, written by Peter Selinger 2001-2019
</metadata>
<g transform="translate(0.000000,60.000000) scale(0.100000,-0.100000)"
fill="#000000" stroke="none">
<path d="M0 300 l0 -300 850 0 850 0 0 300 0 300 -850 0 -850 0 0 -300z m461
250 c11 0 22 -7 25 -15 4 -8 13 -15 21 -15 10 0 14 -7 10 -20 -3 -13 0 -20 9
-20 8 0 14 -7 14 -15 0 -20 39 -19 61 1 10 9 39 16 68 18 l51 2 0 -58 c0 -52
-2 -58 -20 -58 -31 0 -35 -25 -12 -73 41 -88 15 -166 -68 -200 -35 -15 -51
-16 -72 -8 -26 10 -28 14 -28 73 0 35 4 59 8 53 12 -17 46 -11 50 8 2 10 -6
36 -17 58 -23 43 -27 99 -11 129 10 18 8 19 -20 14 -25 -6 -29 -4 -24 10 4 12
0 16 -15 16 -26 0 -26 -8 0 -36 12 -13 22 -37 24 -54 1 -17 5 -33 9 -37 9 -9
7 -43 -2 -43 -5 0 -9 -13 -9 -30 0 -40 -65 -118 -124 -147 -84 -43 -160 -28
-247 51 -56 50 -79 164 -48 237 20 48 84 104 139 123 59 20 73 20 127 1 24 -8
44 -14 46 -12 1 1 4 14 6 27 2 14 8 32 13 40 8 13 10 13 13 -2 2 -10 12 -18
23 -18z m799 -88 c17 -13 30 -26 30 -30 0 -4 -19 -22 -42 -40 -31 -24 -44 -29
-55 -21 -22 19 -43 2 -43 -35 0 -29 3 -33 20 -29 18 5 20 0 20 -56 0 -54 -2
-61 -20 -61 -17 0 -20 -7 -20 -45 l0 -45 -55 0 -56 0 2 155 1 155 44 38 c38
33 50 37 94 36 35 0 59 -7 80 -22z m300 -43 c0 -6 9 -9 20 -6 11 3 20 1 20 -4
0 -5 7 -9 15 -9 16 0 19 -17 9 -45 -6 -14 -8 -14 -31 0 -27 18 -56 5 -46 -21
3 -8 1 -14 -4 -14 -10 0 -9 -122 1 -138 3 -6 3 -17 0 -26 -3 -9 -2 -16 3 -16
5 0 9 -9 9 -20 0 -18 -6 -20 -36 -18 -33 3 -35 5 -32 36 2 18 -1 32 -7 32 -6
0 -11 9 -11 20 0 11 5 20 11 20 8 0 10 12 6 35 -3 19 -1 51 4 71 14 50 1 60
-43 34 -35 -20 -36 -20 -41 -1 -7 26 32 67 61 63 12 -2 22 1 22 7 0 6 16 11
35 11 19 0 35 -5 35 -11z m-700 -119 c0 -91 3 -110 15 -110 12 0 15 19 15 110
l0 110 51 0 51 0 -4 -126 -3 -126 -39 -34 c-50 -43 -105 -47 -151 -10 l-30 24
-3 136 -4 136 51 0 51 0 0 -110z m517 80 c0 -16 -3 -30 -6 -30 -3 0 -6 -43 -6
-95 0 -52 3 -95 7 -95 3 0 4 -9 1 -20 -3 -12 0 -20 6 -20 7 0 9 -4 6 -10 -7
-11 -44 -13 -67 -5 -10 4 -13 37 -12 144 1 76 4 144 8 150 4 6 20 11 35 11 24
0 28 -4 28 -30z m-1283 -196 c8 -3 12 -12 9 -20 -3 -9 1 -14 13 -14 14 0 15
-3 6 -12 -18 -18 -14 -30 8 -23 15 5 20 2 20 -10 0 -11 5 -15 14 -12 21 8 27
-18 10 -40 -11 -13 -17 -14 -20 -5 -3 6 -15 12 -26 12 -14 0 -18 5 -14 15 4
10 -1 15 -15 15 -16 0 -20 5 -16 20 4 15 0 20 -14 20 -10 0 -19 6 -19 14 0 8
-8 16 -17 19 -15 3 -14 6 7 15 30 13 34 14 54 6z"/>
<path d="M435 497 c-4 -10 -5 -21 -1 -24 10 -10 18 4 13 24 -4 17 -4 17 -12 0z"/>
<path d="M460 475 c-7 -9 -11 -18 -8 -20 9 -10 38 7 38 21 0 18 -14 18 -30 -1z"/>
<path d="M180 350 c-15 -28 -5 -40 36 -40 26 0 34 4 34 18 0 41 -51 57 -70 22z"/>
<path d="M362 358 c-7 -7 -12 -20 -12 -30 0 -14 8 -18 34 -18 41 0 51 12 36
40 -12 22 -40 26 -58 8z"/>
<path d="M260 288 c0 -11 39 -20 60 -13 33 10 23 20 -20 20 -22 0 -40 -3 -40
-7z"/>
</g>
</svg>
